Normalized EMG Linear Envelopes
nRows=27
nColumns=17

endheader
time	        VM	        VL	        RF	       GRA	        TA	   ADDLONG	   SEMIMEM	      BFLH	        GM	        GL	       TFL	   GLUTMAX	   GLUTMED	      PIRI	    OBTINT	        QF	
1.97	  0.293337	  0.357654	  0.048752	  0.129187	  0.128068	  0.072209	  0.265593	  0.344569	  0.917411	  0.507218	  0.066614	  0.187705	  0.292483	  0.802891	  2.191007	  0.449057	
1.9705	  0.289228	  0.353759	  0.048292	  0.127717	  0.127425	  0.071846	  0.262624	  0.342066	  0.914859	  0.506800	  0.066517	  0.183782	  0.290535	  0.795835	  2.209132	  0.442750	
1.971	  0.285134	  0.349832	  0.047829	  0.126282	  0.126787	  0.071507	  0.259676	  0.339572	  0.912203	  0.506317	  0.066417	  0.179894	  0.288606	  0.788690	  2.227190	  0.436543	
1.9715	  0.281057	  0.345874	  0.047364	  0.124881	  0.126153	  0.071192	  0.256748	  0.337087	  0.909443	  0.505770	  0.066314	  0.176043	  0.286696	  0.781460	  2.245170	  0.430437	
1.972	  0.276998	  0.341886	  0.046897	  0.123515	  0.125523	  0.070902	  0.253843	  0.334610	  0.906580	  0.505158	  0.066206	  0.172228	  0.284807	  0.774152	  2.263060	  0.424432	
1.9725	  0.272956	  0.337869	  0.046428	  0.122183	  0.124898	  0.070637	  0.250959	  0.332141	  0.903616	  0.504482	  0.066096	  0.168452	  0.282943	  0.766770	  2.280848	  0.418528	
1.973	  0.268933	  0.333824	  0.045957	  0.120886	  0.124278	  0.070397	  0.248098	  0.329679	  0.900550	  0.503742	  0.065981	  0.164714	  0.281104	  0.759320	  2.298523	  0.412726	
1.9735	  0.264930	  0.329754	  0.045483	  0.119624	  0.123662	  0.070182	  0.245261	  0.327224	  0.897385	  0.502939	  0.065862	  0.161016	  0.279292	  0.751806	  2.316071	  0.407025	
1.974	  0.260948	  0.325660	  0.045008	  0.118398	  0.123050	  0.069993	  0.242447	  0.324773	  0.894122	  0.502071	  0.065739	  0.157358	  0.277510	  0.744234	  2.333481	  0.401426	
1.9745	  0.256986	  0.321544	  0.044530	  0.117207	  0.122443	  0.069830	  0.239657	  0.322328	  0.890761	  0.501140	  0.065612	  0.153740	  0.275758	  0.736608	  2.350738	  0.395929	
1.975	  0.253047	  0.317406	  0.044051	  0.116051	  0.121840	  0.069694	  0.236893	  0.319885	  0.887303	  0.500144	  0.065480	  0.150164	  0.274038	  0.728931	  2.367830	  0.390534	
1.9755	  0.249130	  0.313249	  0.043570	  0.114931	  0.121242	  0.069584	  0.234153	  0.317446	  0.883749	  0.499083	  0.065344	  0.146630	  0.272352	  0.721209	  2.384742	  0.385241	
1.976	  0.245237	  0.309075	  0.043087	  0.113846	  0.120648	  0.069502	  0.231440	  0.315007	  0.880100	  0.497958	  0.065202	  0.143138	  0.270701	  0.713444	  2.401460	  0.380051	
1.9765	  0.241369	  0.304884	  0.042603	  0.112798	  0.120058	  0.069447	  0.228753	  0.312569	  0.876356	  0.496766	  0.065056	  0.139688	  0.269086	  0.705641	  2.417970	  0.374963	
1.977	  0.237525	  0.300678	  0.042117	  0.111786	  0.119474	  0.069420	  0.226092	  0.310130	  0.872517	  0.495508	  0.064904	  0.136282	  0.267510	  0.697802	  2.434255	  0.369978	
1.9775	  0.233708	  0.296460	  0.041630	  0.110810	  0.118894	  0.069421	  0.223458	  0.307690	  0.868584	  0.494184	  0.064746	  0.132920	  0.265972	  0.689931	  2.450300	  0.365096	
1.978	  0.229917	  0.292230	  0.041142	  0.109871	  0.118318	  0.069450	  0.220851	  0.305246	  0.864557	  0.492792	  0.064583	  0.129601	  0.264476	  0.682032	  2.466088	  0.360317	
1.9785	  0.226154	  0.287992	  0.040652	  0.108968	  0.117748	  0.069508	  0.218272	  0.302798	  0.860435	  0.491333	  0.064415	  0.126327	  0.263021	  0.674106	  2.481603	  0.355640	
1.979	  0.222418	  0.283746	  0.040162	  0.108103	  0.117182	  0.069595	  0.215721	  0.300345	  0.856220	  0.489806	  0.064240	  0.123097	  0.261609	  0.666158	  2.496827	  0.351067	
1.9795	  0.218711	  0.279495	  0.039672	  0.107274	  0.116622	  0.069711	  0.213198	  0.297886	  0.851911	  0.488212	  0.064058	  0.119912	  0.260242	  0.658189	  2.511742	  0.346597	
1.98	  0.215033	  0.275240	  0.039180	  0.106483	  0.116067	  0.069856	  0.210703	  0.295420	  0.847508	  0.486550	  0.063871	  0.116772	  0.258920	  0.650204	  2.526329	  0.342229	
1.9805	  0.211386	  0.270985	  0.038689	  0.105729	  0.115517	  0.070031	  0.208237	  0.292945	  0.843011	  0.484820	  0.063677	  0.113677	  0.257646	  0.642206	  2.540567	  0.337964	
1.981	  0.207769	  0.266730	  0.038197	  0.105012	  0.114973	  0.070236	  0.205799	  0.290462	  0.838420	  0.483023	  0.063476	  0.110628	  0.256420	  0.634198	  2.554437	  0.333801	
1.9815	  0.204183	  0.262477	  0.037705	  0.104334	  0.114434	  0.070471	  0.203391	  0.287969	  0.833734	  0.481158	  0.063269	  0.107624	  0.255244	  0.626184	  2.567918	  0.329740	
1.982	  0.200628	  0.258230	  0.037214	  0.103693	  0.113901	  0.070736	  0.201011	  0.285466	  0.828953	  0.479225	  0.063054	  0.104665	  0.254119	  0.618168	  2.580989	  0.325781	
1.9825	  0.197106	  0.253988	  0.036723	  0.103090	  0.113375	  0.071031	  0.198661	  0.282953	  0.824077	  0.477227	  0.062833	  0.101752	  0.253046	  0.610153	  2.593628	  0.321922	
1.983	  0.193616	  0.249755	  0.036232	  0.102526	  0.112855	  0.071356	  0.196339	  0.280430	  0.819107	  0.475163	  0.062605	  0.098884	  0.252026	  0.602144	  2.605813	  0.318163	
